<svg version="1.1" id="Layer_1" xmlns="http://www.w3.org/2000/svg" xmlns:xlink="http://www.w3.org/1999/xlink" x="0px" y="0px"
	 width="100%" viewBox="0 0 1070 326" enable-background="new 0 0 1070 326" xml:space="preserve">
<path fill="#FFFFFF" opacity="1.000000" stroke="none" 
	d="
M744.000000,327.000000 
	C496.000000,327.000000 248.500000,327.000000 1.000000,327.000000 
	C1.000000,218.333328 1.000000,109.666664 1.000000,1.000000 
	C357.666656,1.000000 714.333313,1.000000 1071.000000,1.000000 
	C1071.000000,109.666664 1071.000000,218.333328 1071.000000,327.000000 
	C962.166687,327.000000 853.333313,327.000000 744.000000,327.000000 
M238.538773,210.919861 
	C238.636063,210.615860 238.733353,210.311859 239.093811,209.413116 
	C240.054901,208.553146 241.015976,207.693176 242.645416,206.792572 
	C252.801208,196.207947 262.957001,185.623322 273.705536,174.768509 
	C274.823578,173.220657 275.941620,171.672806 277.750183,170.005585 
	C288.671112,159.323059 299.813599,148.853851 310.405121,137.854126 
	C314.708527,133.384872 313.871185,129.433670 309.400543,124.893761 
	C296.559265,111.853638 281.271820,102.420403 264.714874,94.974312 
	C243.847290,85.589615 222.002426,80.596497 198.091797,81.024719 
	C183.688568,80.766075 169.664536,83.016594 155.806396,86.897049 
	C130.353043,94.024323 107.846230,106.266289 88.825829,124.707680 
	C83.777176,129.602646 83.499245,133.812408 88.404510,138.816467 
	C98.770447,149.391113 109.408081,159.699448 120.207916,170.699173 
	C121.766922,172.145050 123.325920,173.590927 125.169189,175.648758 
	C135.103622,185.781723 145.038055,195.914673 154.988403,206.007126 
	C154.988403,206.007126 154.946030,206.011993 155.087921,206.522293 
	C155.371414,206.719025 155.654892,206.915756 156.178665,207.672653 
	C157.085739,208.465607 157.992813,209.258575 159.086029,210.555481 
	C159.386429,210.733490 159.686829,210.911499 159.974335,211.023605 
	C159.974335,211.023605 159.912582,211.050278 160.176239,211.668777 
	C170.725906,222.221939 181.193100,232.860184 191.905457,243.245529 
	C193.715942,245.000732 196.582687,245.666412 199.712280,246.972580 
	C201.320190,246.296768 203.326324,246.022263 204.474304,244.883011 
	C215.754364,233.688629 226.891647,222.350388 238.026627,211.034088 
	C238.026627,211.034088 238.037720,211.078888 238.538773,210.919861 
M360.564209,215.000000 
	C363.536469,214.336777 367.763275,217.042709 368.989777,211.716995 
	C370.949677,203.206619 372.950043,194.704498 375.049255,186.227585 
	C376.543457,180.193680 378.228241,174.206940 379.827972,168.199158 
	C383.579468,180.347702 386.333252,192.406418 389.193359,204.439850 
	C391.745605,215.178085 391.797485,215.168610 403.195953,214.980774 
	C403.680969,214.972778 404.163635,214.821457 404.729675,214.722504 
	C412.137970,189.255890 419.541290,163.806290 427.010040,138.131760 
	C421.457092,138.131760 416.485229,138.131760 411.250732,138.131760 
	C407.029022,154.949402 402.822144,171.707932 398.384308,189.386505 
	C394.051422,171.709824 389.944946,154.956757 385.841583,138.216461 
	C381.738251,138.216461 377.955933,138.216461 374.264557,138.216461 
	C370.094147,155.188416 365.978943,171.935669 361.656860,189.524841 
	C357.175629,171.704132 352.936340,154.845688 348.743134,138.170349 
	C343.207367,138.170349 338.241241,138.170349 333.017944,138.170349 
	C334.301117,142.384247 335.571014,146.357880 336.721436,150.365784 
	C342.511322,170.537231 348.312561,190.705688 353.994659,210.907578 
	C354.862091,213.991592 356.144989,215.856781 360.564209,215.000000 
M561.415771,152.080948 
	C553.713501,162.517349 551.186096,174.506470 554.492676,186.625610 
	C561.028809,210.582230 582.464478,222.738464 607.422546,214.910721 
	C617.857422,211.637985 625.758484,204.983566 630.176025,194.000000 
	C627.722778,194.000000 625.756714,194.062973 623.795898,193.988434 
	C617.361572,193.743835 611.436462,193.945114 605.919556,198.733734 
	C602.817993,201.425873 597.503967,202.917801 593.297913,202.709015 
	C584.466980,202.270676 577.329468,197.796753 572.529724,190.040817 
	C564.595215,177.219513 569.729736,159.284607 585.428284,152.875137 
	C595.554504,148.740784 603.678162,152.223740 611.272888,158.742371 
	C612.336792,159.655533 613.643677,160.830719 614.887634,160.892929 
	C619.834961,161.140381 624.801941,160.994812 630.143188,160.994812 
	C629.796265,159.633331 629.677429,158.683258 629.319580,157.833878 
	C622.387817,141.380890 600.455139,132.622925 582.725281,137.565887 
	C574.043030,139.986450 567.748657,145.250687 561.415771,152.080948 
M850.970398,216.996933 
	C853.970337,216.997955 856.970459,216.976974 859.970154,217.004135 
	C868.893677,217.084946 882.557251,209.027206 884.714355,198.434753 
	C876.096924,196.804825 868.171814,198.614349 860.173706,202.139008 
	C853.154297,205.232422 844.332764,200.073868 842.882385,192.999863 
	C856.059937,192.999863 869.226685,193.081009 882.389587,192.890854 
	C883.929016,192.868622 886.514587,191.622772 886.806580,190.481430 
	C889.233887,180.995087 883.090942,166.675598 875.049133,160.956741 
	C861.233154,151.131577 843.604187,153.131088 831.964172,167.520126 
	C824.694763,176.506317 823.915161,193.155960 830.289795,202.862991 
	C835.099243,210.186707 841.762573,214.681458 850.970398,216.996933 
M642.462341,165.026276 
	C634.588013,173.842621 633.018127,184.409515 635.892944,195.195908 
	C639.825806,209.952026 650.911438,217.095459 667.730591,216.968536 
	C680.052246,216.875580 688.677979,210.506683 693.943604,199.827652 
	C699.445801,188.669037 698.102783,177.374557 690.891052,167.646286 
	C678.327820,150.699097 656.450928,151.319885 642.462341,165.026276 
M816.267517,214.989410 
	C816.844910,213.877792 817.912598,212.771240 817.924133,211.653824 
	C818.046021,199.830414 818.128784,188.002853 817.905762,176.182404 
	C817.852539,173.362503 817.136841,170.300369 815.848633,167.801926 
	C809.761902,155.997070 794.960327,150.125717 781.214905,159.672806 
	C776.706421,154.407852 771.127563,158.163483 766.358521,156.963531 
	C766.358521,176.748474 766.358521,195.804398 766.358521,214.615448 
	C771.458191,214.615448 776.193542,214.615448 781.000000,214.615448 
	C781.000000,203.906708 780.808655,193.576614 781.116089,183.261398 
	C781.208923,180.146240 782.174622,176.797791 783.653442,174.046921 
	C785.638000,170.355057 791.397400,168.860016 795.541626,170.183548 
	C799.459534,171.434799 802.955139,176.485428 802.980835,181.260834 
	C803.040588,192.371109 802.999878,203.481918 802.999878,214.998871 
	C807.396118,214.998871 811.352600,214.998871 816.267517,214.989410 
M754.964783,171.979416 
	C751.578918,156.891663 732.595764,149.115707 717.213196,160.639908 
	C717.024353,159.373764 716.853149,158.225876 716.702209,157.213837 
	C712.324768,157.213837 708.375916,157.213837 704.242188,157.213837 
	C704.242188,176.492233 704.242188,195.556488 704.242188,214.729218 
	C708.886169,214.729218 713.283569,214.729218 719.000061,214.729218 
	C719.000061,203.074066 718.954285,191.680374 719.020874,180.287354 
	C719.050537,175.213806 723.584290,170.367249 728.402832,170.001373 
	C734.710632,169.522415 738.842102,172.279633 739.956787,178.024994 
	C740.543884,181.051315 740.910889,184.164200 740.954102,187.243912 
	C741.082275,196.360291 741.000000,205.479630 741.000000,214.743500 
	C746.189087,214.743500 750.919434,214.743500 754.996277,214.743500 
	C754.996277,200.600204 754.996277,186.719803 754.964783,171.979416 
M892.551208,188.042999 
	C892.937500,190.444214 893.177124,192.880096 893.735046,195.240768 
	C896.431946,206.652512 909.888550,218.261383 925.349060,217.224609 
	C936.565613,216.472443 949.593445,209.332809 952.784607,196.001175 
	C947.909668,196.001175 943.114197,195.901794 938.328308,196.073166 
	C937.175720,196.114456 935.678162,196.750626 934.977173,197.624771 
	C926.229126,208.534012 909.276917,201.270020 907.831543,189.268784 
	C906.989441,182.276413 909.383972,175.267548 915.409424,171.907547 
	C922.031250,168.214981 928.463440,169.183441 934.119080,174.599976 
	C935.135620,175.573532 936.449890,176.820404 937.680969,176.883591 
	C942.721130,177.142349 947.782349,176.991592 952.957031,176.991592 
	C949.701660,161.666748 930.731506,152.008652 916.695007,155.849915 
	C901.432251,160.026779 893.641846,169.338226 892.551208,188.042999 
M496.989349,139.729034 
	C496.376617,139.155762 495.767700,138.087067 495.150574,138.082306 
	C482.552551,137.984955 469.953552,138.009232 457.254517,138.009232 
	C457.254517,163.885605 457.254517,189.265091 457.254517,214.721893 
	C462.573700,214.721893 467.634125,214.721893 473.141357,214.721893 
	C473.141357,204.387085 473.141357,194.322495 473.141357,183.819717 
	C480.986847,183.819717 488.388458,183.819717 495.658569,183.819717 
	C495.658569,178.629196 495.658569,173.902481 495.658569,168.730469 
	C487.920441,168.730469 480.517792,168.730469 473.386292,168.730469 
	C473.386292,162.870911 473.386292,157.470871 473.386292,151.820450 
	C481.381775,151.820450 488.992371,151.820450 496.998901,151.820450 
	C496.998901,147.930618 496.998901,144.307480 496.989349,139.729034 
M978.000000,203.482010 
	C978.000000,192.399261 978.000000,181.316528 978.000000,169.800079 
	C981.326416,169.800079 984.058228,169.800079 986.664856,169.800079 
	C986.664856,165.285278 986.664856,161.221130 986.664856,157.149078 
	C983.593384,157.014404 980.854736,156.894348 977.702515,156.756134 
	C977.702515,150.212112 977.702515,144.146225 977.702515,138.219513 
	C972.969238,138.219513 968.692017,138.219513 963.981567,138.219513 
	C963.981567,144.495270 963.981567,150.567291 963.981567,157.059662 
	C961.478394,157.059662 959.412781,157.059662 957.263550,157.059662 
	C957.263550,161.567856 957.263550,165.636459 957.263550,169.864059 
	C959.585754,169.974304 961.658264,170.072708 964.136475,170.190369 
	C964.136475,185.282990 964.136475,200.000931 964.136475,214.694168 
	C968.968567,214.694168 973.360474,214.694168 978.000000,214.694168 
	C978.000000,211.085632 978.000000,207.780563 978.000000,203.482010 
M442.349548,157.000092 
	C438.606934,157.000092 434.864288,157.000092 431.352234,157.000092 
	C431.352234,176.769958 431.352234,195.808960 431.352234,214.628235 
	C436.439758,214.628235 441.169189,214.628235 445.999634,214.628235 
	C445.999634,196.297470 445.988159,178.338211 446.016174,160.379028 
	C446.019196,158.438507 446.168152,156.564362 442.349548,157.000092 
M506.000000,186.500000 
	C506.000000,195.913269 506.000000,205.326538 506.000000,214.686340 
	C511.320679,214.686340 516.044128,214.686340 520.704346,214.686340 
	C520.704346,195.337311 520.704346,176.303375 520.704346,157.313232 
	C515.680115,157.313232 510.956696,157.313232 506.000000,157.313232 
	C506.000000,166.916656 506.000000,176.208328 506.000000,186.500000 
M520.215881,150.906586 
	C520.571533,146.757004 520.927185,142.607407 521.302734,138.225189 
	C515.839294,138.225189 511.125732,138.225189 506.229980,138.225189 
	C506.229980,142.500412 506.229980,146.549103 506.229980,150.989624 
	C510.720154,150.989624 514.991455,150.989624 520.215881,150.906586 
M431.001160,148.324524 
	C431.794342,149.214981 432.540344,150.818588 433.388733,150.874710 
	C437.464264,151.144333 441.567444,150.995880 445.741760,150.995880 
	C445.741760,146.440567 445.741760,142.391479 445.741760,138.259552 
	C440.765625,138.259552 436.051392,138.259552 431.000061,138.259552 
	C431.000061,141.461365 431.000061,144.414062 431.001160,148.324524 
z"/>
<path fill="#2295E3" opacity="1.000000" stroke="none" 
	d="
M199.016937,81.154160 
	C222.002426,80.596497 243.847290,85.589615 264.714874,94.974312 
	C281.271820,102.420403 296.559265,111.853638 309.400543,124.893761 
	C313.871185,129.433670 314.708527,133.384872 310.405121,137.854126 
	C299.813599,148.853851 288.671112,159.323059 277.510590,169.723740 
	C279.041443,164.846252 275.411224,162.640350 272.810547,160.445557 
	C251.525558,142.482590 227.068222,132.874374 198.990662,132.989655 
	C198.961334,132.959442 198.903900,132.897858 198.927597,132.436218 
	C198.973175,115.034431 198.995056,98.094292 199.016937,81.154160 
z"/>
<path fill="#36BCEE" opacity="1.000000" stroke="none" 
	d="
M198.554367,81.089439 
	C198.995056,98.094292 198.973175,115.034431 198.476334,132.468399 
	C193.396210,133.303741 188.777618,133.519211 184.188141,134.007919 
	C160.655350,136.513748 140.458466,146.340256 123.301956,162.417526 
	C121.423706,164.177628 121.021217,167.512543 119.934250,170.117035 
	C109.408081,159.699448 98.770447,149.391113 88.404510,138.816467 
	C83.499245,133.812408 83.777176,129.602646 88.825829,124.707680 
	C107.846230,106.266289 130.353043,94.024323 155.806396,86.897049 
	C169.664536,83.016594 183.688568,80.766075 198.554367,81.089439 
z"/>
<path fill="#414042" opacity="1.000000" stroke="none" 
	d="
M360.103577,215.000000 
	C356.144989,215.856781 354.862091,213.991592 353.994659,210.907578 
	C348.312561,190.705688 342.511322,170.537231 336.721436,150.365784 
	C335.571014,146.357880 334.301117,142.384247 333.017944,138.170349 
	C338.241241,138.170349 343.207367,138.170349 348.743134,138.170349 
	C352.936340,154.845688 357.175629,171.704132 361.656860,189.524841 
	C365.978943,171.935669 370.094147,155.188416 374.264557,138.216461 
	C377.955933,138.216461 381.738251,138.216461 385.841583,138.216461 
	C389.944946,154.956757 394.051422,171.709824 398.384308,189.386505 
	C402.822144,171.707932 407.029022,154.949402 411.250732,138.131760 
	C416.485229,138.131760 421.457092,138.131760 427.010040,138.131760 
	C419.541290,163.806290 412.137970,189.255890 404.729675,214.722504 
	C404.163635,214.821457 403.680969,214.972778 403.195953,214.980774 
	C391.797485,215.168610 391.745605,215.178085 389.193359,204.439850 
	C386.333252,192.406418 383.579468,180.347702 379.827972,168.199158 
	C378.228241,174.206940 376.543457,180.193680 375.049255,186.227585 
	C372.950043,194.704498 370.949677,203.206619 368.989777,211.716995 
	C367.763275,217.042709 363.536469,214.336777 360.103577,215.000000 
z"/>
<path fill="#414042" opacity="1.000000" stroke="none" 
	d="
M561.680359,151.831238 
	C567.748657,145.250687 574.043030,139.986450 582.725281,137.565887 
	C600.455139,132.622925 622.387817,141.380890 629.319580,157.833878 
	C629.677429,158.683258 629.796265,159.633331 630.143188,160.994812 
	C624.801941,160.994812 619.834961,161.140381 614.887634,160.892929 
	C613.643677,160.830719 612.336792,159.655533 611.272888,158.742371 
	C603.678162,152.223740 595.554504,148.740784 585.428284,152.875137 
	C569.729736,159.284607 564.595215,177.219513 572.529724,190.040817 
	C577.329468,197.796753 584.466980,202.270676 593.297913,202.709015 
	C597.503967,202.917801 602.817993,201.425873 605.919556,198.733734 
	C611.436462,193.945114 617.361572,193.743835 623.795898,193.988434 
	C625.756714,194.062973 627.722778,194.000000 630.176025,194.000000 
	C625.758484,204.983566 617.857422,211.637985 607.422546,214.910721 
	C582.464478,222.738464 561.028809,210.582230 554.492676,186.625610 
	C551.186096,174.506470 553.713501,162.517349 561.680359,151.831238 
z"/>
<path fill="#414042" opacity="1.000000" stroke="none" 
	d="
M850.524902,216.983612 
	C841.762573,214.681458 835.099243,210.186707 830.289795,202.862991 
	C823.915161,193.155960 824.694763,176.506317 831.964172,167.520126 
	C843.604187,153.131088 861.233154,151.131577 875.049133,160.956741 
	C883.090942,166.675598 889.233887,180.995087 886.806580,190.481430 
	C886.514587,191.622772 883.929016,192.868622 882.389587,192.890854 
	C869.226685,193.081009 856.059937,192.999863 842.882385,192.999863 
	C844.332764,200.073868 853.154297,205.232422 860.173706,202.139008 
	C868.171814,198.614349 876.096924,196.804825 884.714355,198.434860 
	C882.557251,209.027206 868.893677,217.084946 859.970154,217.004135 
	C856.970459,216.976974 853.970337,216.997955 850.524902,216.983612 
M844.444641,175.039658 
	C843.548645,176.476212 842.652710,177.912781 841.481201,179.791107 
	C852.034729,179.791107 861.731628,179.791107 871.511414,179.791107 
	C867.632751,170.183472 855.856628,165.815842 844.444641,175.039658 
z"/>
<path fill="#1983DE" opacity="1.000000" stroke="none" 
	d="
M273.112793,175.038696 
	C262.957001,185.623322 252.801208,196.207947 242.320038,206.398346 
	C242.768814,201.310471 240.446808,198.510376 236.787704,195.788254 
	C225.529083,187.412643 212.763824,183.918991 199.015961,183.015625 
	C198.986008,182.985535 198.926605,182.924835 198.946014,182.461304 
	C198.951691,170.339645 198.937988,158.681519 198.953568,147.013794 
	C198.982849,147.004196 199.042480,146.988708 199.487274,146.993042 
	C203.210220,147.328171 206.485580,147.690399 209.767029,147.984634 
	C228.966309,149.706192 245.809250,157.021820 260.717804,169.139435 
	C264.309143,172.058487 267.456146,176.298019 273.112793,175.038696 
z"/>
<path fill="#23B0EA" opacity="1.000000" stroke="none" 
	d="
M198.924286,147.023392 
	C198.937988,158.681519 198.951691,170.339645 198.528687,182.489166 
	C196.148422,183.317505 194.211975,183.894638 192.260223,183.952011 
	C180.556702,184.296173 170.497910,189.144684 161.182632,195.614975 
	C157.792618,197.969650 153.993896,200.773026 154.972488,206.047638 
	C145.038055,195.914673 135.103622,185.781723 125.448036,175.332550 
	C130.866150,176.180923 133.663864,172.170944 136.786621,169.558441 
	C154.805786,154.483643 175.683517,147.561523 198.924286,147.023392 
z"/>
<path fill="#414042" opacity="1.000000" stroke="none" 
	d="
M642.725952,164.771027 
	C656.450928,151.319885 678.327820,150.699097 690.891052,167.646286 
	C698.102783,177.374557 699.445801,188.669037 693.943604,199.827652 
	C688.677979,210.506683 680.052246,216.875580 667.730591,216.968536 
	C650.911438,217.095459 639.825806,209.952026 635.892944,195.195908 
	C633.018127,184.409515 634.588013,173.842621 642.725952,164.771027 
M680.678528,180.176956 
	C680.481384,179.919891 680.234131,179.687393 680.094482,179.402176 
	C676.338623,171.733658 669.838806,168.342773 662.101746,170.028152 
	C656.153809,171.323822 649.474915,179.561340 649.035034,186.144241 
	C648.644958,191.981216 654.635254,199.789841 660.772583,202.066742 
	C667.088623,204.409988 672.594299,202.424347 676.899475,198.341385 
	C681.739136,193.751450 683.426025,187.627777 680.678528,180.176956 
z"/>
<path fill="#414042" opacity="1.000000" stroke="none" 
	d="
M815.788330,214.994141 
	C811.352600,214.998871 807.396118,214.998871 802.999878,214.998871 
	C802.999878,203.481918 803.040588,192.371109 802.980835,181.260834 
	C802.955139,176.485428 799.459534,171.434799 795.541626,170.183548 
	C791.397400,168.860016 785.638000,170.355057 783.653442,174.046921 
	C782.174622,176.797791 781.208923,180.146240 781.116089,183.261398 
	C780.808655,193.576614 781.000000,203.906708 781.000000,214.615448 
	C776.193542,214.615448 771.458191,214.615448 766.358521,214.615448 
	C766.358521,195.804398 766.358521,176.748474 766.358521,156.963531 
	C771.127563,158.163483 776.706421,154.407852 781.214905,159.672806 
	C794.960327,150.125717 809.761902,155.997070 815.848633,167.801926 
	C817.136841,170.300369 817.852539,173.362503 817.905762,176.182404 
	C818.128784,188.002853 818.046021,199.830414 817.924133,211.653824 
	C817.912598,212.771240 816.844910,213.877792 815.788330,214.994141 
z"/>
<path fill="#414042" opacity="1.000000" stroke="none" 
	d="
M754.980530,172.409409 
	C754.996277,186.719803 754.996277,200.600204 754.996277,214.743500 
	C750.919434,214.743500 746.189087,214.743500 741.000000,214.743500 
	C741.000000,205.479630 741.082275,196.360291 740.954102,187.243912 
	C740.910889,184.164200 740.543884,181.051315 739.956787,178.024994 
	C738.842102,172.279633 734.710632,169.522415 728.402832,170.001373 
	C723.584290,170.367249 719.050537,175.213806 719.020874,180.287354 
	C718.954285,191.680374 719.000061,203.074066 719.000061,214.729218 
	C713.283569,214.729218 708.886169,214.729218 704.242188,214.729218 
	C704.242188,195.556488 704.242188,176.492233 704.242188,157.213837 
	C708.375916,157.213837 712.324768,157.213837 716.702209,157.213837 
	C716.853149,158.225876 717.024353,159.373764 717.213196,160.639908 
	C732.595764,149.115707 751.578918,156.891663 754.980530,172.409409 
z"/>
<path fill="#414042" opacity="1.000000" stroke="none" 
	d="
M892.309204,187.676392 
	C893.641846,169.338226 901.432251,160.026779 916.695007,155.849915 
	C930.731506,152.008652 949.701660,161.666748 952.957031,176.991592 
	C947.782349,176.991592 942.721130,177.142349 937.680969,176.883591 
	C936.449890,176.820404 935.135620,175.573532 934.119080,174.599976 
	C928.463440,169.183441 922.031250,168.214981 915.409424,171.907547 
	C909.383972,175.267548 906.989441,182.276413 907.831543,189.268784 
	C909.276917,201.270020 926.229126,208.534012 934.977173,197.624771 
	C935.678162,196.750626 937.175720,196.114456 938.328308,196.073166 
	C943.114197,195.901794 947.909668,196.001175 952.784607,196.001175 
	C949.593445,209.332809 936.565613,216.472443 925.349060,217.224609 
	C909.888550,218.261383 896.431946,206.652512 893.735046,195.240768 
	C893.177124,192.880096 892.937500,190.444214 892.309204,187.676392 
z"/>
<path fill="#414042" opacity="1.000000" stroke="none" 
	d="
M496.994141,140.206680 
	C496.998901,144.307480 496.998901,147.930618 496.998901,151.820450 
	C488.992371,151.820450 481.381775,151.820450 473.386292,151.820450 
	C473.386292,157.470871 473.386292,162.870911 473.386292,168.730469 
	C480.517792,168.730469 487.920441,168.730469 495.658569,168.730469 
	C495.658569,173.902481 495.658569,178.629196 495.658569,183.819717 
	C488.388458,183.819717 480.986847,183.819717 473.141357,183.819717 
	C473.141357,194.322495 473.141357,204.387085 473.141357,214.721893 
	C467.634125,214.721893 462.573700,214.721893 457.254517,214.721893 
	C457.254517,189.265091 457.254517,163.885605 457.254517,138.009232 
	C469.953552,138.009232 482.552551,137.984955 495.150574,138.082306 
	C495.767700,138.087067 496.376617,139.155762 496.994141,140.206680 
z"/>
<path fill="#414042" opacity="1.000000" stroke="none" 
	d="
M978.000000,203.978760 
	C978.000000,207.780563 978.000000,211.085632 978.000000,214.694168 
	C973.360474,214.694168 968.968567,214.694168 964.136475,214.694168 
	C964.136475,200.000931 964.136475,185.282990 964.136475,170.190369 
	C961.658264,170.072708 959.585754,169.974304 957.263550,169.864059 
	C957.263550,165.636459 957.263550,161.567856 957.263550,157.059662 
	C959.412781,157.059662 961.478394,157.059662 963.981567,157.059662 
	C963.981567,150.567291 963.981567,144.495270 963.981567,138.219513 
	C968.692017,138.219513 972.969238,138.219513 977.702515,138.219513 
	C977.702515,144.146225 977.702515,150.212112 977.702515,156.756134 
	C980.854736,156.894348 983.593384,157.014404 986.664856,157.149078 
	C986.664856,161.221130 986.664856,165.285278 986.664856,169.800079 
	C984.058228,169.800079 981.326416,169.800079 978.000000,169.800079 
	C978.000000,181.316528 978.000000,192.399261 978.000000,203.978760 
z"/>
<path fill="#2295E3" opacity="1.000000" stroke="none" 
	d="
M198.953568,147.013794 
	C175.683517,147.561523 154.805786,154.483643 136.786621,169.558441 
	C133.663864,172.170944 130.866150,176.180923 125.305901,175.026581 
	C123.325920,173.590927 121.766922,172.145050 120.071075,170.408112 
	C121.021217,167.512543 121.423706,164.177628 123.301956,162.417526 
	C140.458466,146.340256 160.655350,136.513748 184.188141,134.007919 
	C188.777618,133.519211 193.396210,133.303741 198.452637,132.930054 
	C198.903900,132.897858 198.961334,132.959442 198.982956,133.451981 
	C199.017212,138.292587 199.029846,142.640640 199.042480,146.988708 
	C199.042480,146.988708 198.982849,147.004196 198.953568,147.013794 
z"/>
<path fill="#1368D4" opacity="1.000000" stroke="none" 
	d="
M199.487274,146.993042 
	C199.029846,142.640640 199.017212,138.292587 199.012299,133.482208 
	C227.068222,132.874374 251.525558,142.482590 272.810547,160.445557 
	C275.411224,162.640350 279.041443,164.846252 277.165344,169.783417 
	C275.941620,171.672806 274.823578,173.220657 273.409180,174.903595 
	C267.456146,176.298019 264.309143,172.058487 260.717804,169.139435 
	C245.809250,157.021820 228.966309,149.706192 209.767029,147.984634 
	C206.485580,147.690399 203.210220,147.328171 199.487274,146.993042 
z"/>
<path fill="#00ADEE" opacity="1.000000" stroke="none" 
	d="
M198.961395,246.835495 
	C196.582687,245.666412 193.715942,245.000732 191.905457,243.245529 
	C181.193100,232.860184 170.725906,222.221939 160.454498,211.337311 
	C163.262741,210.072784 166.150848,209.637756 168.260818,208.120575 
	C177.462418,201.504105 187.296646,197.156555 198.932159,198.503571 
	C198.954559,214.924805 198.957977,230.880142 198.961395,246.835495 
z"/>
<path fill="#1471DB" opacity="1.000000" stroke="none" 
	d="
M199.336838,246.904037 
	C198.957977,230.880142 198.954559,214.924805 198.972076,198.486969 
	C198.993011,198.004471 199.072403,197.970230 199.517044,197.978516 
	C210.528030,197.573303 219.624893,201.297668 228.151382,207.316025 
	C230.944885,209.287781 234.735062,209.847504 238.069458,211.052979 
	C226.891647,222.350388 215.754364,233.688629 204.474304,244.883011 
	C203.326324,246.022263 201.320190,246.296768 199.336838,246.904037 
z"/>
<path fill="#414042" opacity="1.000000" stroke="none" 
	d="
M442.829407,157.000610 
	C446.168152,156.564362 446.019196,158.438507 446.016174,160.379028 
	C445.988159,178.338211 445.999634,196.297470 445.999634,214.628235 
	C441.169189,214.628235 436.439758,214.628235 431.352234,214.628235 
	C431.352234,195.808960 431.352234,176.769958 431.352234,157.000092 
	C434.864288,157.000092 438.606934,157.000092 442.829407,157.000610 
z"/>
<path fill="#414042" opacity="1.000000" stroke="none" 
	d="
M506.000000,186.000000 
	C506.000000,176.208328 506.000000,166.916656 506.000000,157.313232 
	C510.956696,157.313232 515.680115,157.313232 520.704346,157.313232 
	C520.704346,176.303375 520.704346,195.337311 520.704346,214.686340 
	C516.044128,214.686340 511.320679,214.686340 506.000000,214.686340 
	C506.000000,205.326538 506.000000,195.913269 506.000000,186.000000 
z"/>
<path fill="#1983DE" opacity="1.000000" stroke="none" 
	d="
M198.953094,198.021088 
	C187.296646,197.156555 177.462418,201.504105 168.260818,208.120575 
	C166.150848,209.637756 163.262741,210.072784 160.322662,211.028061 
	C159.912582,211.050278 159.974335,211.023605 159.879517,210.810303 
	C159.489777,210.415176 159.194824,210.233353 158.899887,210.051544 
	C157.992813,209.258575 157.085739,208.465607 155.980011,207.141418 
	C155.502930,206.410782 155.224472,206.211395 154.946030,206.011993 
	C154.946030,206.011993 154.988403,206.007126 154.980438,206.027374 
	C153.993896,200.773026 157.792618,197.969650 161.182632,195.614975 
	C170.497910,189.144684 180.556702,184.296173 192.260223,183.952011 
	C194.211975,183.894638 196.148422,183.317505 198.509277,182.952698 
	C198.926605,182.924835 198.986008,182.985535 198.996094,183.476166 
	C199.028244,188.634598 199.050323,193.302414 199.072418,197.970230 
	C199.072403,197.970230 198.993011,198.004471 198.953094,198.021088 
z"/>
<path fill="#1057CF" opacity="1.000000" stroke="none" 
	d="
M199.517059,197.978516 
	C199.050323,193.302414 199.028244,188.634598 199.026047,183.506256 
	C212.763824,183.918991 225.529083,187.412643 236.787704,195.788254 
	C240.446808,198.510376 242.768814,201.310471 241.985855,206.418671 
	C241.015976,207.693176 240.054901,208.553146 238.768646,209.838211 
	C238.203735,210.483170 238.068481,210.755020 238.037720,211.078888 
	C238.037720,211.078888 238.026627,211.034088 238.048035,211.043518 
	C234.735062,209.847504 230.944885,209.287781 228.151382,207.316025 
	C219.624893,201.297668 210.528030,197.573303 199.517059,197.978516 
z"/>
<path fill="#414042" opacity="1.000000" stroke="none" 
	d="
M519.739258,150.948105 
	C514.991455,150.989624 510.720154,150.989624 506.229980,150.989624 
	C506.229980,146.549103 506.229980,142.500412 506.229980,138.225189 
	C511.125732,138.225189 515.839294,138.225189 521.302734,138.225189 
	C520.927185,142.607407 520.571533,146.757004 519.739258,150.948105 
z"/>
<path fill="#414042" opacity="1.000000" stroke="none" 
	d="
M431.000610,147.845642 
	C431.000061,144.414062 431.000061,141.461365 431.000061,138.259552 
	C436.051392,138.259552 440.765625,138.259552 445.741760,138.259552 
	C445.741760,142.391479 445.741760,146.440567 445.741760,150.995880 
	C441.567444,150.995880 437.464264,151.144333 433.388733,150.874710 
	C432.540344,150.818588 431.794342,149.214981 431.000610,147.845642 
z"/>
<path fill="#23B0EA" opacity="1.000000" stroke="none" 
	d="
M155.016968,206.267151 
	C155.224472,206.211395 155.502930,206.410782 155.859863,206.861343 
	C155.654892,206.915756 155.371414,206.719025 155.016968,206.267151 
z"/>
<path fill="#00ADEE" opacity="1.000000" stroke="none" 
	d="
M158.992950,210.303513 
	C159.194824,210.233353 159.489777,210.415176 159.885971,210.843246 
	C159.686829,210.911499 159.386429,210.733490 158.992950,210.303513 
z"/>
<path fill="#1471DB" opacity="1.000000" stroke="none" 
	d="
M238.288239,210.999374 
	C238.068481,210.755020 238.203735,210.483170 238.637070,210.135590 
	C238.733353,210.311859 238.636063,210.615860 238.288239,210.999374 
z"/>
<path fill="#FFFFFF" opacity="1.000000" stroke="none" 
	d="
M844.720093,174.772430 
	C855.856628,165.815842 867.632751,170.183472 871.511414,179.791107 
	C861.731628,179.791107 852.034729,179.791107 841.481201,179.791107 
	C842.652710,177.912781 843.548645,176.476212 844.720093,174.772430 
z"/>
<path fill="#FFFFFF" opacity="1.000000" stroke="none" 
	d="
M680.822632,180.554916 
	C683.426025,187.627777 681.739136,193.751450 676.899475,198.341385 
	C672.594299,202.424347 667.088623,204.409988 660.772583,202.066742 
	C654.635254,199.789841 648.644958,191.981216 649.035034,186.144241 
	C649.474915,179.561340 656.153809,171.323822 662.101746,170.028152 
	C669.838806,168.342773 676.338623,171.733658 680.094482,179.402176 
	C680.234131,179.687393 680.481384,179.919891 680.822632,180.554916 
z"/>
</svg>